<svg width="90.294" height="11.22" viewBox="0 0 90.294 11.22">
  <g id="Logo" transform="translate(-10 -14)">
    <path id="Logo_W4C" d="M10.665,10.965H9.18l-2.446-9H6.7l-2.474,9H2.745L0,.255H1.454l2.1,8.909h.031L5.984.255H7.529L9.9,9.165h.031L12.1.255h1.424ZM56.733,7.237H57.97V8.4H56.733v2.568H55.5V8.4H50.687V7.129l4.9-7h1.142Zm-1.238,0V1.871h-.03L51.815,7.237ZM88.764,3.479a2.822,2.822,0,0,0-3-2.279c-2.55,0-3.63,2.1-3.63,4.335,0,2.445,1.08,4.485,3.645,4.485a3.03,3.03,0,0,0,3.09-3.09h1.425a4.36,4.36,0,0,1-4.635,4.29c-3.33,0-4.95-2.461-4.95-5.58S82.479,0,85.779,0c2.235,0,4.079,1.2,4.41,3.479Z" transform="translate(10 14)" fill="#161615"/>
  </g>
</svg>
